<?xml version="1.0" encoding="UTF-8"?>
<svg id="Layer_2" data-name="Layer 2" xmlns="http://www.w3.org/2000/svg" viewBox="0 0 473.72 155.51">
  <defs>
    <style>
      .cls-1 {
        fill: #e6e7e8;
      }

      .cls-1, .cls-2 {
        stroke-width: 0px;
      }

      .cls-2 {
        fill: #fff;
      }
    </style>
  </defs>
  <g id="Layer_1-2" data-name="Layer 1">
    <g>
      <rect class="cls-1" x="9.77" y="3.56" width="449.62" height="137.87"/>
      <path class="cls-2" d="M0,.63c22.45-.01,44.9.17,67.34-.1,21.8-.26,43.6-.09,65.41-.24,8.17-.06,16.33-.18,24.5-.23,5.77-.04,11.53-.06,17.3,0,50.56.55,101.13.37,151.69.15,44.54-.19,89.09-.04,133.63-.2,3.9-.01,7.79-.02,11.69-.03,2.1,0,2.16.04,2.16,2.15,0,19.19,0,38.38,0,57.57,0,30.59,0,61.17,0,91.76,0,.54,0,1.09,0,1.63-.03,1.93-.12,1.85-1.99,2.09-4.68.59-9.33-.06-14-.03-18.53.11-37.06.2-55.59.28-5.87.03-11.74.15-17.59-.06-3.35-.12-6.7-.3-10.05-.19-9.21.3-18.41-.31-27.62,0-6.06.2-12.11-.15-18.17-.03-4.67.09-9.35.03-14.01.1-20.65.3-41.3.13-61.95.18-4.57.01-9.14-.26-13.71-.16-3,.07-6.01.27-9.01.15-10.69-.41-21.39-.24-32.08-.25-28.16-.03-56.32-.01-84.47-.01-24.91,0-49.83.12-74.74-.08-9.07-.07-18.15-.05-27.21-.28-3.84-.1-7.68-.12-11.52-.23V.63ZM144.2,93.37h0c0,6.36-.01,12.73,0,19.09,0,3.92.03,3.92,3.89,4.06,4.65.17,5.22-.37,5.25-4.97,0-.69,0-1.38,0-2.07.03-6.02-.39-12.02-.52-18.03-.18-8.23-.14-16.48-.07-24.71.06-6.87,1.24-13.56,4.03-19.86,2.28-5.15,5.86-9.06,11.53-10.63,7.44-2.06,12.51,3.51,12.86,9.32.28,4.66-.78,9.21-2.47,13.58-.35.9-.85,1.66-1.77,2.08-2.24,1.03-4.52,1.96-6.92,2.52-2.25.53-4.53.89-6.87.93-1.37.02-2.27,1.11-2.34,2.41-.08,1.36.9,1.74,1.93,2.04,1.13.33,2.27.32,3.33-.16,3.22-1.45,6.44-2.89,9.89-3.77,2.86-.73,5.63-.86,8.56-.14,6.35,1.57,10.24,5.77,13,11.35,1.67,3.38,1.87,7,1.77,10.68-.16,6.33-1.14,12.44-4.08,18.16-3.06,5.94-8.27,8.88-14.48,9.83-6.13.94-11.31-2-16.01-5.61-1.57-1.2-2.91-2.67-4.97-3.02-.62-.11-1.13-.06-1.61.44-1.78,1.85-1.55,5.01.54,6.5.6.43,1.25.79,1.91,1.13,4.24,2.24,8.76,3.39,13.55,3.79,6.03.5,11.68-.62,16.98-3.44,3.05-1.62,5.82-3.69,8.36-6.03,2.14-1.96,4.18-3.95,5.58-6.62,1.8-3.44,2.68-7.07,3.25-10.84.92-6.09.04-11.92-2.66-17.41-2.84-5.78-7.61-9.2-13.86-10.52-2.36-.5-4.76-.81-7.15-1.17-.82-.12-1.28-.45-.74-1.24,1-1.47,1.69-3.11,2.78-4.53,2.9-3.78,3.5-8.12,2.45-12.62-1.72-7.41-9.85-11.45-16.07-10.9-4.65.41-9.2,1.55-13.22,3.95-6.83,4.09-10.61,10.55-12.91,17.95-2.06,6.6-2.68,13.42-2.72,20.3-.03,6.07,0,12.14,0,18.2ZM24.04,106.16h-.02c0,2.57,0,5.13,0,7.7,0,3.63.04,3.69,3.7,3.7,6.07.02,12.14-.07,18.21.06,4.63.1,9.24-.51,13.87-.34.46.02,1.12.1,1.19-.56.07-.6-.59-.54-.97-.7-2.36-1.06-4.58-2.32-6.2-4.41-2.78-3.61-3.81-7.62-3.35-12.2.4-4.01,1.61-4.82-3.66-3.05-7.61,2.56-12.99,1.03-17.73-5.6-1.7-2.37-2.26-5.05-.96-7.69,1.55-3.16,3.8-5.75,7.35-6.89,1.74-.56,1.8-.99.69-2.53-.98-1.36-2.17-2.55-2.89-4.1-1.86-3.99-1.41-7.9.02-11.92,1.66-4.68,4.56-8.37,9.14-10.1,7.59-2.87,15.07-2.65,21.88,2.47,3.08,2.31,5.06,5.5,6.83,8.82.75,1.41,1.8,1.92,3.27,1.55,1.41-.36,2.2-1.41,2.19-2.82,0-3.41.77-6.75.72-10.17-.02-1.97-.1-4.08,1.38-5.77.45-.52.17-1.02-.32-1.39-.54-.41-1.18-.48-1.83-.47-4.59.08-9.17-.24-13.75-.27-11-.07-22.01-.03-33.01-.04-.99,0-1.96-.04-2.95-.19-2.04-.31-2.46.05-2.52,2.13-.12,4.29-.28,8.58-.29,12.87-.03,17.31-.01,34.62-.01,51.94ZM65.93,117.15c.77,0,1.36-.07,1.93.01,6.32.93,12.69.24,19.04.59,4.44.25,8.92-.16,13.38.1,2.27.13,2.71-.26,2.71-2.55.02-8.62.04-17.24.04-25.87,0-15.58,0-31.17,0-46.75,0-3.19-.08-3.31-3.2-3.26-5.22.07-10.44.41-15.67.3-.7-.01-1.39.09-2,.45-.59.34-.89.86-.41,1.47,1.69,2.14,1.3,4.43.55,6.75-.94,2.92-1.2,5.99-2,8.94-.17.63-.38,1.51.27,1.93.68.44,1.28-.26,1.83-.62,2.81-1.84,5.72-3.5,8.79-4.87,1.36-.61,2.76-1.12,4.27-.99,1.17.1,2.06.74,2.43,1.88.38,1.17-.26,1.95-1.2,2.59-2.54,1.76-5.39,2.62-8.42,2.89-2.68.24-4.95,1.56-7.31,2.65-.24.11-.49.39-.58.65-.53,1.57-.72,3.26-1.73,4.72,1.03-.37,1.92-.73,2.95-.53,6.54,1.27,11.59,4.81,15.29,10.25,2.56,3.77,2.78,8.07,2.59,12.5-.25,5.53-3.02,9.84-6.75,13.39-4.69,4.46-10.43,4.22-16.2,2.21-.88-.31-1.68-.82-2.51-1.27-.95-.52-1.49-.21-1.72.79-.23,1.06-.43,2.13-.69,3.18-.6,2.42-1.51,4.67-3.31,6.5-.69.7-1.84.76-2.4,1.97ZM360.32,46.53c-.1,0-.2,0-.3,0,0,4.68.01,9.36,0,14.05-.02,3.89.06,7.79-.32,11.68-.17,1.8-.46,2.23-2.27,2.08-2.31-.19-4.63-.15-6.94-.31-4.39-.3-7.91,1.33-10.65,4.66-3.06,3.72-5.8,7.57-6.02,12.71-.15,3.46-.17,6.88.08,10.34.45,6.19,3.35,10.88,8.6,14,4.7,2.79,8.59,3.39,13.45-1.11.79-.73,1.63-.69,2.44-.18.87.55,1.68,1.21,2.5,1.84,1.13.87,2.43.99,3.64.47,1.11-.47,1.28-1.7,1.33-2.79.09-2.07.22-4.14.26-6.2.17-8.13.03-16.27.26-24.4.13-4.58.39-9.14.49-13.72.22-10.1.71-20.19,1.05-30.28.08-2.32-.72-2.99-3.08-3.22-1.78-.18-3.54-.02-5.3.04-3.64.1-7.29.19-10.93.31-1.46.05-1.82.51-1.61,1.95.18,1.26,1.02,1.97,2.74,1.85,2.68-.19,5.38-.19,7.98-1.21,1.73-.68,2.52-.01,2.58,1.84.06,1.87.01,3.75.01,5.62ZM95.04,87.85c.04-7.98-5.19-13.9-10.57-14.7-2.08-.31-4.33-.32-6.1-1.58-1.46-1.05-2.49-.64-3.71.24-1.83,1.31-3.12,3.13-4.64,4.74-3.52,3.73-6.33,8.05-9.8,11.83-3.28,3.56-5.3,7.78-6.36,12.5-.72,3.2-.06,6.06,1.82,8.68,2.48,3.44,6.16,3.74,9.15.77.24-.24.49-.49.73-.73,3.49-3.53,3.79-9.2.7-13.04-.93-1.16-1.76-2.38-2.26-3.79-.28-.8-.18-1.69.58-2.11.82-.45,1.23.42,1.59.95,1.28,1.87,2.47,3.81,3.74,5.68,1.03,1.51,2.03,3.1,3.59,4.09,4.43,2.81,10.34,2.07,14.08-1.65.38-.38.78-.75,1.18-1.12,3.93-3.59,6.21-7.95,6.29-10.75ZM54.49,49.55c-2.11.28-4.6.01-6.54,1.42-2.73,1.98-5.53,3.92-7.49,6.82-3.21,4.75-4.46,9.61-1.47,14.95.56.99,1.23,1.75,2.26,2.24,2.36,1.12,4.71,2.26,7.05,3.42,1.14.57,2.35,1.07,3.06,2.23.32.52,1.02,1.05.55,1.69-.49.67-1.29.38-1.9.09-1.69-.8-3.36-1.66-5.02-2.52-1.58-.82-3.18-1.32-4.96-.72-3.05,1.03-5.48,2.89-7.25,5.56-.8,1.22-1.31,2.63-.81,4.07,1.08,3.12,3.23,5.18,6.58,5.66,4.4.64,7.99-1.18,11.13-4.04,7.19-6.55,12.69-14.53,18.64-22.13.79-1.01,1.01-2.25.34-3.34-1.34-2.17-2.03-4.59-2.98-6.91-2.15-5.27-6.25-8.46-11.19-8.5ZM268.19,95.71c0-4.14,0-6.9,0-9.66,0-.65-.02-1.31.39-1.85.79-1.03,1.94-1.89,1.64-3.44-.02-.08.16-.27.27-.3,2.1-.48,3.68-2.15,5.76-2.59,5.34-1.15,7.57.59,7.89,4.97.41,5.65.19,11.33-.06,17-.2,4.72-.76,9.43-.73,14.17,0,.87.06,1.73.94,2.17,1.1.55,2.22,1.07,3.51,1.05,2.03-.03,3.45-1.38,3.52-3.4.04-1.23-.02-2.47.05-3.7.46-8.17.64-16.34-.1-24.5-.31-3.39-.84-6.72-3.24-9.48-1.37-1.58-2.87-2.68-4.95-2.9-2.71-.29-5.26.21-7.74,1.41-1.88.91-3.46,2.26-5.25,3.3-.88.51-1.52.63-2.01-.46-.24-.53-.67-.99-.88-1.53-.86-2.19-1.25-2.65-3.49-2.38-4.32.51-8.65.48-12.97.79-1.04.07-1.89.56-2.64,1.22-1.1.98-.98,1.9.34,2.51.94.43,1.91.63,3.01.47,2.32-.33,4.43-1.34,6.7-1.79,1.78-.35,2.37-.01,2.4,1.54.18,7.89-.38,15.76-.75,23.64-.19,3.94-.58,7.87-.42,11.82.08,1.98.51,2.43,2.47,2.92,1.22.31,2.45.28,3.68.24,1.72-.05,2.53-.79,2.66-2.53.13-1.77.34-3.53.33-5.31-.02-4.93-.53-9.85-.31-13.41ZM427.74,100.15c0-2.96.02-5.92,0-8.88-.04-4.38-1.06-8.53-3.43-12.23-1.47-2.3-3.27-4.38-6.02-5.22-6.24-1.91-12.08-.89-17.5,2.66-2.65,1.74-4,4.27-4.28,7.41-.17,1.94,1.17,3.8,3,4.16,1.6.31,2.86-.63,3.51-2.65.2-.61.35-1.23.46-1.86.92-5.24,3.26-7.55,8.54-7.9,3.37-.23,6.2.85,7.04,4.63.48,2.19.54,4.4.43,6.62-.04.92-.54,1.48-1.42,1.87-1.18.52-2.44.31-3.63.57-5.02,1.1-9.81,2.89-14.63,4.61-1.29.46-2.2,1.47-3.03,2.53-2.36,3.04-3.64,6.36-3.8,10.32-.29,7.56,6.52,11.67,11.95,10.91,4.32-.6,8.07-2.38,11.45-5.1,2.34-1.89,2.39-1.83,3.06,1.16.2.9.13,2.02.99,2.54,1.7,1.03,3.62.97,5.43.39,1.46-.48,1.47-1.94,1.6-3.23.44-4.42.33-8.86.28-13.3ZM211.69,94.57c-.11,4.68.33,8.77,2.28,12.65,3.11,6.18,10.6,11.54,18.17,10.42,6.12-.9,11-3.86,14.06-9.02,3.64-6.16,5-13.01,3.65-20.21-.69-3.69-1.84-7.24-4.63-9.85-2.75-2.57-5.9-4.42-9.83-4.99-8.14-1.19-16.33,2.27-20.71,9.17-2.37,3.74-3.44,7.83-3,11.82ZM329.48,99.72c0-3.25.04-5.47,0-7.69-.07-3.32-.59-6.58-1.72-9.72-2.35-6.56-7.38-10.02-13.56-9.35-.93.1-1.87.15-2.8.2-2.92.16-5.59,1.02-8.02,2.71-3.15,2.2-4.68,5.26-4.92,9.01-.12,1.94.53,2.46,3.23,2.94,1.69.3,2.14,0,2.77-1.83.53-1.54,1.03-3.09,1.61-4.61,1.77-4.59,5.34-6.34,10.01-5.5,1.94.35,3.79,1.27,4.55,3.37.63,1.71,1.12,3.47,1.36,5.29.48,3.57-.9,5.16-4.54,5.21-1.33.02-2.68-.3-3.98.1-4.38,1.35-8.75,2.74-12.74,5.09-2.82,1.65-4.57,3.97-4.95,7.28-.24,2.1-.51,4.17-.42,6.32.19,4.38,2.98,6.78,6.19,8.96.54.37,1.21.36,1.86.38,5.01.14,9.51-1.28,13.49-4.35.99-.76,1.83-1.64,2.6-2.61.47-.6.86-.75,1.16.24.39,1.26.97,2.47,1.48,3.69.75,1.83,2.05,2.73,3.81,2.66,1.79-.08,2.95-1.08,3.55-3.03.28-.92.28-1.85.28-2.78.01-4.34-.53-8.67-.29-11.98ZM379.71,73.81v-.04c-1.13,0-2.27-.05-3.4.01-2.01.11-4.04,0-5.94.91-1.16.55-.97,1.63-1.07,2.55-.07.69.57,1.07,1.17,1.13,2.11.19,4.26.43,6.13-.94,1.23-.9,2.57-.84,3.79-.29,1.1.5.88,1.77.91,2.78.11,3.1-.06,6.2-.28,9.3-.29,4.17-.53,8.35-.81,12.53-.28,4.19.17,8.37.33,12.55.03.81.18,1.76,1.19,2.01,1.89.47,3.79.59,5.7.07,1.16-.31,1.65-1.05,1.43-2.2-.93-4.98-.75-9.98-.54-15.02.3-7.43.29-14.87.38-22.31.03-2.37-.42-2.9-2.79-3.02-2.06-.1-4.14-.02-6.21-.02ZM435.87,71.98c6.28.2,13.1-4.81,12.95-12.81-.14-7.78-6.3-12.67-11.46-12.87-7.97-.32-13.99,6.38-13.94,12.93.05,7.5,5.26,12.69,12.44,12.75ZM382.46,64.82c.32.84-.03,1.98,1.07,2.31,1.1.33,2.05-.18,2.72-1.06.44-.58.74-1.28,1.07-1.93,2.32-4.58,3.92-9.46,5.87-14.19.65-1.59,1.07-3.28,1.34-4.99.12-.76.09-1.51-.61-2.01-1.78-1.28-6.18.03-7.04,2.05-1.56,3.66-2.23,7.57-3.03,11.42-.58,2.78-.51,5.69-1.41,8.42ZM125.18,115.63c.08-1.54.01-2.96-.24-4.38-.17-.94-.7-1.32-1.62-1.38-1.26-.08-2.02.54-2.22,1.69-.51,2.82-.47,5.67,0,8.5.05.28.19.56.34.82.46.8,1.02,1.53,2.07,1.35,1.07-.19,1.31-1.07,1.41-2,.17-1.57.37-3.13.26-4.6ZM121.08,45.75c.03,1.47-.03,2.94.27,4.4.26,1.23.86,1.98,2.16,1.95,1.32-.03,1.57-1.06,1.63-2.06.2-3.35.01-6.68-.67-9.97-.28-1.33-1.07-1.55-2.07-.65-.53.48-.76,1.12-.96,1.79-.45,1.49-.33,3.02-.36,4.54ZM125.2,99c.12-1.78-.12-3.55-.32-5.31-.1-.91-.38-1.69-1.52-1.56-1.04.12-1.94.45-2,1.74-.07,1.43-.2,2.85-.25,4.28-.05,1.48-.11,2.97.32,4.41.32,1.06,1.09,1.67,2.21,1.56,1.06-.1,1.49-.9,1.54-1.87.05-1.08.01-2.17.01-3.25ZM125.2,81.36c0-1.61.03-2.98-.21-4.36-.15-.89-.33-1.69-1.44-1.72-1.03-.03-1.92.35-2.18,1.4-.75,2.91-.91,5.85.18,8.71.36.95,1.24,1.4,2.27,1.33,1.01-.06.99-.92,1.17-1.62.34-1.31.17-2.65.21-3.74ZM124.91,63.99s.07,0,.1,0c-.07-1.52-.09-3.05-.23-4.56-.08-.81-.45-1.56-1.43-1.61-.97-.05-1.52.51-1.81,1.41-.72,2.19-.9,4.44-.68,6.71.14,1.42.89,2.48,2.27,3.02,1.12.44,1.74.05,1.78-1.13.05-1.28.01-2.56.01-3.84Z"/>
      <path class="cls-2" d="M359.49,81.33c-.43,8.12-.8,15.36-1.21,22.59-.09,1.67.05,3.35-.31,5.01-.88,4.13-6.17,6.58-9.92,4.6-2.85-1.5-4.56-3.91-5.37-6.92-1.52-5.7-1.75-11.46-.68-17.29.47-2.57.66-5.19,1.66-7.64.9-2.2,2.12-4.22,4.44-5.08,2.42-.9,4.93-.76,7.38.07.23.08.43.27.67.31,2.95.59,3.77,2.49,3.33,4.34Z"/>
      <path class="cls-2" d="M419.54,98.79c0,1.33-.09,2.67.02,3.99.29,3.46-1.13,5.88-4.19,7.44-1.45.74-2.84,1.57-4.37,2.18-3.1,1.24-6,.78-8.43-1.35-2.47-2.16-3.02-5.13-2.43-8.27.66-3.54,2.71-5.96,5.96-7.59,2.94-1.48,5.86-2.78,9.16-3.16.9-.1,1.76-.6,2.63-.92,1.2-.44,1.4.17,1.52,1.04.31,2.21.08,4.43.12,6.65Z"/>
      <path class="cls-2" d="M220.23,96.53c-.27-5.08.76-9.93,2.75-14.56,1.44-3.35,4.33-5.14,7.72-6.1,1.35-.38,2.7,0,3.98.71,4.71,2.61,6.58,6.88,6.93,11.95.43,6.29-.96,12.36-2.57,18.37-1.37,5.15-6.1,8.34-10.86,7.49-2.3-.41-3.75-1.91-4.87-3.76-2.14-3.55-2.92-7.5-3.07-11.6-.03-.84,0-1.68,0-2.52Z"/>
      <path class="cls-2" d="M322.14,98.92c-.13,2.26.2,4.53-.38,6.77-.31,1.2-.9,2.12-1.98,2.8-2.79,1.77-5.5,3.67-8.86,4.23-3.67.62-6.57-1.19-7.86-4.66-2.35-6.28,1.42-12.79,8.1-14.31,2.75-.62,5.45-1.64,8.15-2.57,1.92-.66,2.26-.49,2.6,1.53.35,2.06.11,4.13.23,6.2Z"/>
      <path class="cls-2" d="M445.57,59.81c.13,1.6-.1,3.15-.59,4.66-.15.46-.28,1.05-.62,1.31-1.63,1.24-3.23,2.6-5.04,3.51-1.94.97-4.15.78-6.24.2-5.57-1.55-8.76-7.69-6.93-13.17.88-2.65,2.17-5,4.66-6.44,6.28-3.63,14.24.62,14.75,7.85.05.69,0,1.38,0,2.07ZM437.8,64.12c.83-1.61,1.1-3.29,1.18-4.99.04-.82-.28-1.62-1.32-1.59-.96.03-.94.82-.98,1.51-.1,1.79.71,3.37,1.12,5.06Z"/>
      <rect class="cls-2" x="419.59" y="42.43" width="39.79" height="30.07"/>
    </g>
  </g>
</svg>